<svg width="70" height="63" viewBox="0 0 70 63" fill="none" xmlns="http://www.w3.org/2000/svg">
<path d="M35.35 44.1787C35.35 44.5252 35.6475 44.8087 36.0062 44.8087H52.1937C52.5525 44.8087 52.85 44.5252 52.85 44.1787V40.3987C52.85 40.0522 52.5525 39.7687 52.1937 39.7687H36.0062C35.6475 39.7687 35.35 40.0522 35.35 40.3987V44.1787ZM18.2963 44.6591L35.0962 31.9804C35.4287 31.7284 35.4287 31.2637 35.0962 31.0117L18.2963 18.3409C18.1948 18.2633 18.0708 18.2135 17.9389 18.1974C17.8069 18.1813 17.6727 18.1997 17.552 18.2503C17.4313 18.3008 17.3293 18.3815 17.258 18.4827C17.1868 18.5839 17.1493 18.7014 17.15 18.8212V23.7589C17.15 23.9479 17.2375 24.1211 17.4037 24.2392L27.0113 31.5L17.4037 38.7608C17.3255 38.8197 17.2624 38.8931 17.2186 38.976C17.1748 39.0589 17.1514 39.1493 17.15 39.2411V44.1787C17.15 44.7142 17.8413 45.0056 18.2963 44.6591ZM67.2 0H2.8C1.25125 0 0 1.12612 0 2.52V60.48C0 61.8739 1.25125 63 2.8 63H67.2C68.7487 63 70 61.8739 70 60.48V2.52C70 1.12612 68.7487 0 67.2 0ZM63.7 57.33H6.3V5.67H63.7V57.33Z" fill="#5F27CD"/>
</svg>
