<svg width="154" height="154" viewBox="0 0 154 154" fill="none" xmlns="http://www.w3.org/2000/svg">
<circle cx="77" cy="77" r="77" fill="#10AC84"/>
<path d="M92.368 76.056C96.464 77.016 99.696 79 102.064 82.008C104.496 85.016 105.712 88.504 105.712 92.472C105.712 98.296 103.76 102.84 99.856 106.104C96.016 109.368 90.48 111 83.248 111H51.664V43.128H82.48C89.392 43.128 94.736 44.632 98.512 47.64C102.288 50.648 104.176 54.936 104.176 60.504C104.176 64.6 103.088 68.024 100.912 70.776C98.736 73.464 95.888 75.224 92.368 76.056ZM68.08 70.872H78.832C84.528 70.872 87.376 68.44 87.376 63.576C87.376 58.712 84.464 56.28 78.64 56.28H68.08V70.872ZM79.792 97.656C85.872 97.656 88.912 95.16 88.912 90.168C88.912 87.736 88.112 85.848 86.512 84.504C84.912 83.096 82.64 82.392 79.696 82.392H68.08V97.656H79.792Z" fill="white"/>
</svg>
