<svg width="54" height="63" viewBox="0 0 54 63" fill="none" xmlns="http://www.w3.org/2000/svg">
<path d="M0.876684 41.365C5.57881 46.3721 8.18555 52.9333 8.17757 59.7414C8.17757 60.6056 8.52753 61.4345 9.15045 62.0456C9.77337 62.6567 10.6182 63 11.4992 63L42.5008 63C43.3818 63 44.2266 62.6567 44.8496 62.0456C45.4725 61.4345 45.8224 60.6056 45.8224 59.7414C45.8144 52.9332 48.4212 46.3719 53.1233 41.3647C53.6217 40.8331 53.9259 40.154 53.9881 39.4343C54.0503 38.7146 53.8671 37.995 53.4671 37.3886L29.7888 1.48849C29.7846 1.48197 29.7791 1.47654 29.7749 1.46975C29.7054 1.36597 29.6299 1.26615 29.5488 1.17078C29.5322 1.15068 29.5133 1.13276 29.4962 1.11375C29.4306 1.04043 29.3622 0.969825 29.2905 0.902481C29.1952 0.814337 29.0949 0.731475 28.9902 0.654283C28.9614 0.633102 28.9332 0.611105 28.9038 0.591011C28.6968 0.448462 28.4738 0.329653 28.2392 0.236908C28.2135 0.22686 28.1872 0.218443 28.1615 0.208939C28.0684 0.174904 27.9736 0.144852 27.8769 0.118784C27.7497 0.0848896 27.6206 0.0585017 27.4902 0.039762C27.4559 0.034331 27.4221 0.0280857 27.3875 0.0240124C27.1302 -0.00800364 26.8698 -0.00800364 26.6125 0.0240124C26.5779 0.0280857 26.5441 0.0343332 26.5098 0.0394927C26.3793 0.0583091 26.2501 0.0847856 26.1228 0.118784C26.0261 0.144671 25.9314 0.174816 25.8385 0.209212C25.8125 0.218445 25.7865 0.22686 25.761 0.236908C25.5263 0.329571 25.3032 0.448385 25.0962 0.591011C25.0668 0.611105 25.0386 0.633102 25.0098 0.654283C24.9051 0.731475 24.8048 0.814337 24.7095 0.902481C24.6375 0.969825 24.5694 1.04043 24.5041 1.11348C24.4867 1.13276 24.4681 1.15068 24.4512 1.1705C24.3702 1.26597 24.2948 1.36588 24.2254 1.46975C24.2209 1.47654 24.2154 1.48197 24.2112 1.48849L0.532901 37.3889C0.132931 37.9953 -0.0503381 38.7149 0.01189 39.4346C0.0741181 40.1543 0.378313 40.8333 0.876684 41.365V41.365ZM27 32.5863C27.6569 32.5863 28.2991 32.7774 28.8454 33.1354C29.3916 33.4935 29.8174 34.0024 30.0688 34.5979C30.3202 35.1933 30.3859 35.8485 30.2578 36.4806C30.1296 37.1127 29.8133 37.6933 29.3487 38.1491C28.8842 38.6048 28.2923 38.9151 27.648 39.0409C27.0037 39.1666 26.3358 39.1021 25.7289 38.8554C25.1219 38.6088 24.6032 38.1911 24.2382 37.6553C23.8732 37.1194 23.6784 36.4894 23.6784 35.8449C23.6793 34.9809 24.0296 34.1526 24.6523 33.5417C25.275 32.9308 26.1193 32.5872 27 32.5863V32.5863ZM23.6784 14.2932V26.6298C21.4622 27.3985 19.5943 28.911 18.4049 30.9001C17.2155 32.8892 16.7812 35.2268 17.1787 37.4997C17.5762 39.7725 18.7799 41.8344 20.5771 43.3208C22.3744 44.8071 24.6493 45.6224 27 45.6224C29.3507 45.6224 31.6256 44.8071 33.4229 43.3208C35.2201 41.8344 36.4238 39.7725 36.8213 37.4997C37.2188 35.2268 36.7845 32.8892 35.5951 30.9001C34.4057 28.911 32.5378 27.3985 30.3216 26.6298V14.2932L46.5471 38.8936C42.4702 43.9546 39.9676 50.0617 39.3392 56.4828L14.6611 56.4828C14.0327 50.0616 11.5299 43.9545 7.45291 38.8936L23.6784 14.2932Z" fill="#5F27CD"/>
</svg>
