<svg width="46" height="63" viewBox="0 0 46 63" fill="none" xmlns="http://www.w3.org/2000/svg">
<path d="M4.6 1.96877C4.6 1.44662 4.35768 0.945857 3.92635 0.57664C3.49501 0.207424 2.91 0 2.3 0C1.69 0 1.10499 0.207424 0.673655 0.57664C0.242321 0.945857 0 1.44662 0 1.96877V9.84386C0 11.4103 0.726961 12.9126 2.02096 14.0203C3.31496 15.1279 5.07001 15.7502 6.9 15.7502H7.866L1.15 27.8778C0.347929 29.3274 -0.0281807 30.9228 0.0543954 32.5252C0.136971 34.1276 0.675732 35.6885 1.6238 37.072L17.5536 60.3311C18.111 61.1436 18.9068 61.8174 19.8621 62.2856C20.8175 62.7537 21.8992 63 23 63C24.1008 63 25.1825 62.7537 26.1379 62.2856C27.0932 61.8174 27.889 61.1436 28.4464 60.3311L44.3762 37.072C45.3235 35.6881 45.8615 34.1271 45.9433 32.5247C46.025 30.9223 45.6482 29.3271 44.8454 27.8778L38.134 15.7502H39.1C40.93 15.7502 42.685 15.1279 43.979 14.0203C45.273 12.9126 46 11.4103 46 9.84386V1.96877C46 1.44662 45.7577 0.945857 45.3263 0.57664C44.895 0.207424 44.31 0 43.7 0C43.09 0 42.505 0.207424 42.0737 0.57664C41.6423 0.945857 41.4 1.44662 41.4 1.96877V9.84386C41.4 10.366 41.1577 10.8668 40.7263 11.236C40.295 11.6052 39.71 11.8126 39.1 11.8126H6.9C6.29 11.8126 5.70499 11.6052 5.27365 11.236C4.84232 10.8668 4.6 10.366 4.6 9.84386V1.96877ZM33.0464 15.7502L40.6916 29.567C41.1719 30.4363 41.397 31.3929 41.3473 32.3536C41.2976 33.3142 40.9746 34.25 40.4064 35.0796L25.3 57.1377V34.9103C26.177 34.4769 26.8623 33.8079 27.2498 33.0071C27.6374 32.2063 27.7053 31.3184 27.4433 30.4811C27.1812 29.6439 26.6037 28.9041 25.8003 28.3764C24.9969 27.8487 24.0126 27.5627 23 27.5627C21.9874 27.5627 21.0031 27.8487 20.1997 28.3764C19.3963 28.9041 18.8188 29.6439 18.5567 30.4811C18.2947 31.3184 18.3626 32.2063 18.7502 33.0071C19.1377 33.8079 19.823 34.4769 20.7 34.9103V57.1377L5.5936 35.0835C5.02539 34.254 4.70241 33.3182 4.65271 32.3575C4.603 31.3968 4.82809 30.4403 5.3084 29.571L12.9536 15.7502H33.0464Z" fill="#5F27CD"/>
</svg>
