<svg width="93" height="144" viewBox="0 0 93 144" fill="none" xmlns="http://www.w3.org/2000/svg">
<path d="M61.368 71.056C65.464 72.016 68.696 74 71.064 77.008C73.496 80.016 74.712 83.504 74.712 87.472C74.712 93.296 72.76 97.84 68.856 101.104C65.016 104.368 59.48 106 52.248 106H20.664V38.128H51.48C58.392 38.128 63.736 39.632 67.512 42.64C71.288 45.648 73.176 49.936 73.176 55.504C73.176 59.6 72.088 63.024 69.912 65.776C67.736 68.464 64.888 70.224 61.368 71.056ZM37.08 65.872H47.832C53.528 65.872 56.376 63.44 56.376 58.576C56.376 53.712 53.464 51.28 47.64 51.28H37.08V65.872ZM48.792 92.656C54.872 92.656 57.912 90.16 57.912 85.168C57.912 82.736 57.112 80.848 55.512 79.504C53.912 78.096 51.64 77.392 48.696 77.392H37.08V92.656H48.792Z" fill="#3C403D"/>
<path d="M3 25H88C89.1046 25 90 25.8954 90 27V66" stroke="#10AC84" stroke-width="6"/>
<path d="M90 121L5 121C3.89543 121 3 120.105 3 119L3 80" stroke="#10AC84" stroke-width="6"/>
</svg>
